<?xml version="1.0" encoding="UTF-8" standalone="no"?>
<svg
   xmlns:dc="http://purl.org/dc/elements/1.1/"
   xmlns:cc="http://creativecommons.org/ns#"
   xmlns:rdf="http://www.w3.org/1999/02/22-rdf-syntax-ns#"
   xmlns:svg="http://www.w3.org/2000/svg"
   xmlns="http://www.w3.org/2000/svg"
   xmlns:sodipodi="http://sodipodi.sourceforge.net/DTD/sodipodi-0.dtd"
   xmlns:inkscape="http://www.inkscape.org/namespaces/inkscape"
   version="1.0"
   width="128.000000pt"
   height="128.000000pt"
   viewBox="0 0 128.000000 128.000000"
   preserveAspectRatio="xMidYMid meet"
   id="svg2"
   inkscape:version="0.91 r13725"
   sodipodi:docname="icon.svg">
  <defs
     id="defs16" />
  <sodipodi:namedview
     pagecolor="#ffffff"
     bordercolor="#666666"
     borderopacity="1"
     objecttolerance="10"
     gridtolerance="10"
     guidetolerance="10"
     inkscape:pageopacity="0"
     inkscape:pageshadow="2"
     inkscape:window-width="1160"
     inkscape:window-height="706"
     id="namedview14"
     showgrid="false"
     inkscape:zoom="1.475"
     inkscape:cx="80"
     inkscape:cy="80"
     inkscape:window-x="1812"
     inkscape:window-y="294"
     inkscape:window-maximized="0"
     inkscape:current-layer="svg2" />
  <metadata
     id="metadata4">
Created by potrace 1.13, written by Peter Selinger 2001-2015
<rdf:RDF>
  <cc:Work
     rdf:about="">
    <dc:format>image/svg+xml</dc:format>
    <dc:type
       rdf:resource="http://purl.org/dc/dcmitype/StillImage" />
  </cc:Work>
</rdf:RDF>
</metadata>
  <path
     style="fill:#000000;stroke:none"
     inkscape:connector-curvature="0"
     id="path8"
     d="M 55,0.6 C 21.1,7.2 0.7,42.1 12.4,73.5 c 7.2,19 24.2,32.8 43.8,35.6 l 7.7,1.1 0.3,8.9 0.3,8.9 8.2,-4.6 C 90.9,113.1 104.5,99.3 112.2,83.5 128,50.6 114.2,14.4 81.4,2.9 75.6,0.9 60.4,-0.4 55,0.6 Z m 22.5,2.9 c 18.7,4.9 34.6,21.5 38.6,40.2 1.7,8.5 0.6,23.3 -2.3,31.4 -7.1,19.2 -21.6,35.4 -42,46.8 l -5.7,3.2 -0.3,-8.3 -0.3,-8.3 -6.5,-0.7 C 38.6,105.6 20.7,91.5 13.9,72.5 11.2,65.1 10.3,51.6 12,43.7 15.8,25.2 31.7,8.5 50.1,3.6 57.3,1.7 70.2,1.6 77.5,3.5 Z" />
  <path
     style="fill:#0f9d58;stroke:none;fill-opacity:1"
     inkscape:connector-curvature="0"
     id="path10"
     d="m 35.7,38.6 c -1.2,1.3 -0.8,21.9 0.5,23.2 0.7,0.7 4,1.2 8,1.2 5,0 6.8,0.4 6.8,1.3 0,1.6 -3.7,5.1 -6.2,6 -2,0.7 -2.6,7.1 -0.8,8.2 0.6,0.4 3.2,-0.4 5.8,-1.7 3.5,-1.7 5.3,-3.4 7,-6.8 2.1,-4.1 2.2,-5.6 2,-18 L 58.5,38.5 47.4,38.2 c -6,-0.1 -11.3,0.1 -11.7,0.4 z" />
  <path
     style="fill:#0f9d58;stroke:none;fill-opacity:1"
     inkscape:connector-curvature="0"
     id="path12"
     d="m 69.7,38.6 c -1.2,1.3 -0.8,21.9 0.5,23.2 0.7,0.7 4,1.2 8,1.2 5,0 6.8,0.4 6.8,1.3 0,1.6 -3.7,5.1 -6.2,6 -2,0.7 -2.6,7.1 -0.8,8.2 0.6,0.4 3.2,-0.4 5.8,-1.7 3.5,-1.7 5.3,-3.4 7,-6.8 2.1,-4.1 2.2,-5.6 2,-18 L 92.5,38.5 81.4,38.2 c -6,-0.1 -11.3,0.1 -11.7,0.4 z" />
</svg>
